# xmcd
#
# Track frame offsets: 
#        150
#        12315
#        27976
#        41572
#        62260
#
# Disc length: 1222 seconds
#
# Revision: 0
# Processed by: cddbd v1.5.2PL0 Copyright (c) Steve Scherf et al.
# Submitted via: ExactAudioCopy v0.95a5
#
DISCID=3304c405
DTITLE=Okkervil River - Overboard and Down
DYEAR=2006
DGENRE=Indie
TTITLE0=The President's Dead
TTITLE1=The Room I'm Hiding In
TTITLE2=O, Dana
TTITLE3=Love To A Monster
TTITLE4=Westfall (Live)
EXTD=
EXTT0=
EXTT1=
EXTT2=
EXTT3=
EXTT4=
PLAYORDER=
